<?xml version="1.0" encoding="UTF-8" standalone="no"?>
<!-- Created with Inkscape (http://www.inkscape.org/) -->

<svg
   xmlns:dc="http://purl.org/dc/elements/1.1/"
   xmlns:cc="http://creativecommons.org/ns#"
   xmlns:rdf="http://www.w3.org/1999/02/22-rdf-syntax-ns#"
   xmlns:svg="http://www.w3.org/2000/svg"
   xmlns="http://www.w3.org/2000/svg"
   version="1.1"
   width="23.349182"
   height="38.955696"
   id="svg3028">
  <defs
     id="defs3030" />
  <metadata
     id="metadata3033">
    <rdf:RDF>
      <cc:Work
         rdf:about="">
        <dc:format>image/svg+xml</dc:format>
        <dc:type
           rdf:resource="http://purl.org/dc/dcmitype/StillImage" />
        <dc:title></dc:title>
      </cc:Work>
    </rdf:RDF>
  </metadata>
  <g
     transform="translate(-214.74782,-476.57556)"
     id="layer1">
    <path
       d="m 225.74071,476.97785 c -0.3584,0.0196 -0.7285,0.0699 -1.0938,0.125 -3.5737,0.53882 -6.2223,2.59305 -7.8125,5.09375 -0.9667,1.52042 -1.6417,3.36932 -1.6875,5.6875 -0.047,2.37262 0.6832,4.20369 1.5938,5.78125 0.4554,0.78896 0.8698,1.58354 1.3437,2.34375 1.4198,2.27726 2.9568,4.43287 4.2813,6.78125 1.7857,3.16587 3.2576,6.58273 4.0937,10.6875 1.2098,-6.22757 3.9946,-10.76226 6.9375,-15.21875 0.9881,-1.49617 1.9648,-2.99307 2.75,-4.625 0.4023,-0.83603 0.8439,-1.62617 1.125,-2.5625 0.2778,-0.92504 0.4663,-2.01451 0.4375,-3.21875 -0.056,-2.35049 -0.7121,-4.16216 -1.6875,-5.6875 -0.9344,-1.46142 -2.1624,-2.69668 -3.75,-3.625 -1.6999,-0.994 -4.0228,-1.69963 -6.5312,-1.5625 z m 0.8125,6.25 c 2.184,0 3.9687,1.78477 3.9687,3.96875 0,2.18398 -1.7847,3.9375 -3.9687,3.9375 -2.184,0 -3.9375,-1.75352 -3.9375,-3.9375 0,-2.18398 1.7535,-3.96875 3.9375,-3.96875 z"
       id="path3943"
       style="fill:#ff0000;fill-opacity:1;stroke:#1c241f;stroke-width:0.7980848;stroke-miterlimit:10" />
  </g>
</svg>
